<svg xmlns="http://www.w3.org/2000/svg" version="1.1" xmlns:xlink="http://www.w3.org/1999/xlink" xmlns:svgjs="http://svgjs.com/svgjs" width="512" height="512" x="0" y="0" viewBox="0 0 512 512" style="enable-background:new 0 0 512 512" xml:space="preserve" class=""><g>
<g xmlns="http://www.w3.org/2000/svg">
	<g>
		<path d="M449.643,0H62.357C27.973,0,0,27.973,0,62.357v387.285C0,484.027,27.973,512,62.357,512H260.86    c8.349,0,15.118-6.769,15.118-15.118v-183.31c0-8.349-6.769-15.118-15.118-15.118h-54.341v-43.033h54.341    c8.349,0,15.118-6.769,15.118-15.118v-61.192c0-33.116,26.942-60.058,60.059-60.058h52.433v43.033h-52.433    c-9.387,0-17.025,7.639-17.025,17.026v61.192c0,8.349,6.769,15.118,15.118,15.118h54.341v43.033h-54.341    c-8.349,0-15.118,6.769-15.118,15.118v183.31c0,8.349,6.769,15.118,15.118,15.118h115.513C484.027,512,512,484.027,512,449.643    V62.357C512,27.973,484.027,0,449.643,0z M481.764,449.643c0,17.712-14.409,32.122-32.122,32.122H349.247h-0.001V328.69h54.341    c8.349,0,15.118-6.769,15.118-15.118v-73.268c0-8.349-6.769-15.118-15.118-15.118h-54.341v-32.864h54.341    c8.349,0,15.118-6.769,15.118-15.118v-73.268c0-8.349-6.769-15.118-15.118-15.118h-67.551c-49.788,0-90.294,40.506-90.294,90.294    v46.074h-54.341c-8.349,0-15.118,6.769-15.118,15.118v73.268c0,8.349,6.769,15.118,15.118,15.118h54.341v153.074H62.357    c-17.712,0-32.122-14.409-32.122-32.122V62.357c0-17.712,14.409-32.122,32.122-32.122h387.285    c17.712,0,32.122,14.409,32.122,32.122V449.643z" fill="#000000" data-original="#000000" class=""></path>
	</g>
</g>
<g xmlns="http://www.w3.org/2000/svg">
</g>
<g xmlns="http://www.w3.org/2000/svg">
</g>
<g xmlns="http://www.w3.org/2000/svg">
</g>
<g xmlns="http://www.w3.org/2000/svg">
</g>
<g xmlns="http://www.w3.org/2000/svg">
</g>
<g xmlns="http://www.w3.org/2000/svg">
</g>
<g xmlns="http://www.w3.org/2000/svg">
</g>
<g xmlns="http://www.w3.org/2000/svg">
</g>
<g xmlns="http://www.w3.org/2000/svg">
</g>
<g xmlns="http://www.w3.org/2000/svg">
</g>
<g xmlns="http://www.w3.org/2000/svg">
</g>
<g xmlns="http://www.w3.org/2000/svg">
</g>
<g xmlns="http://www.w3.org/2000/svg">
</g>
<g xmlns="http://www.w3.org/2000/svg">
</g>
<g xmlns="http://www.w3.org/2000/svg">
</g>
</g></svg>