<svg xmlns="http://www.w3.org/2000/svg" version="1.1" xmlns:xlink="http://www.w3.org/1999/xlink" xmlns:svgjs="http://svgjs.com/svgjs" width="512" height="512" x="0" y="0" viewBox="0 0 409.6 409.6" style="enable-background:new 0 0 512 512" xml:space="preserve" class=""><g>
<g xmlns="http://www.w3.org/2000/svg">
	<g>
		<path d="M307.2,0H102.4C46.085,0,0,46.065,0,102.4v204.8c0,56.315,46.085,102.4,102.4,102.4h204.8    c56.315,0,102.4-46.085,102.4-102.4V102.4C409.6,46.065,363.515,0,307.2,0z M204.8,290.13c-47.135,0-85.335-38.216-85.335-85.33    c0-47.135,38.2-85.335,85.335-85.335c47.114,0,85.335,38.2,85.335,85.335C290.135,251.914,251.914,290.13,204.8,290.13z     M315.735,119.465c-14.152,0-25.6-11.464-25.6-25.6c0-14.136,11.448-25.6,25.6-25.6c14.152,0,25.6,11.464,25.6,25.6    C341.335,108.001,329.887,119.465,315.735,119.465z" fill="#000000" data-original="#000000" class=""></path>
	</g>
</g>
<g xmlns="http://www.w3.org/2000/svg">
</g>
<g xmlns="http://www.w3.org/2000/svg">
</g>
<g xmlns="http://www.w3.org/2000/svg">
</g>
<g xmlns="http://www.w3.org/2000/svg">
</g>
<g xmlns="http://www.w3.org/2000/svg">
</g>
<g xmlns="http://www.w3.org/2000/svg">
</g>
<g xmlns="http://www.w3.org/2000/svg">
</g>
<g xmlns="http://www.w3.org/2000/svg">
</g>
<g xmlns="http://www.w3.org/2000/svg">
</g>
<g xmlns="http://www.w3.org/2000/svg">
</g>
<g xmlns="http://www.w3.org/2000/svg">
</g>
<g xmlns="http://www.w3.org/2000/svg">
</g>
<g xmlns="http://www.w3.org/2000/svg">
</g>
<g xmlns="http://www.w3.org/2000/svg">
</g>
<g xmlns="http://www.w3.org/2000/svg">
</g>
</g></svg>